<svg xmlns="http://www.w3.org/2000/svg" width="168" height="139.894" viewBox="0 0 168 139.894">
  <g id="Group_502" data-name="Group 502" transform="translate(-1370 -1779.598)">
    <text id="INDOOR_OUTDOOR_INSTALLATION" data-name="INDOOR&amp;OUTDOOR
INSTALLATION" transform="translate(1454 1890.491)" fill="#182b37" font-size="17" font-family="SegoeUI-Bold, Segoe UI" font-weight="700"><tspan x="-83.618" y="0">INDOOR&amp;OUTDOOR</tspan><tspan x="-59.633" y="25">INSTALLATION</tspan></text>
    <g id="Group_5" data-name="Group 5" transform="translate(1418 1779.598)">
      <g id="Group_9" data-name="Group 9" transform="translate(0 0)">
        <path id="Path_27" data-name="Path 27" d="M7153.408-2615.988a1.192,1.192,0,0,0,1.192-1.192v-3.576h1.192a1.192,1.192,0,0,0,1.192-1.192v-3.576h23.843a1.192,1.192,0,0,0,1.192-1.192v-35.766a1.192,1.192,0,0,0-1.192-1.192h-4.769v-2.385a1.192,1.192,0,0,0-1.192-1.192h-9.538a1.192,1.192,0,0,0-1.192,1.192v2.385h-11.922v-2.385a1.192,1.192,0,0,0-1.192-1.192h-9.538a1.192,1.192,0,0,0-1.192,1.192v2.385h-11.922v-2.385a1.192,1.192,0,0,0-1.192-1.192h-9.538a1.192,1.192,0,0,0-1.192,1.192v2.385h-4.769a1.192,1.192,0,0,0-1.192,1.192v35.765a1.192,1.192,0,0,0,1.192,1.192h23.844v3.576a1.192,1.192,0,0,0,1.192,1.192h1.192v3.577a1.192,1.192,0,0,0,1.192,1.192h3.577v17.883h-31a1.192,1.192,0,0,0-1.192,1.192,1.192,1.192,0,0,0,1.192,1.192h69.146a1.192,1.192,0,0,0,1.192-1.192,1.192,1.192,0,0,0-1.192-1.192h-31v-17.883Zm13.114-48.88h7.153v4.769h-7.153v-4.769Zm-23.844,0h7.153v4.769h-7.153v-4.769Zm-23.844,0h7.153v4.769h-7.153v-4.769Zm-5.961,3.576h3.576v2.384h0a1.192,1.192,0,0,0,1.192,1.192h9.538a1.192,1.192,0,0,0,1.192-1.192h0v-2.384h11.922v2.384h0a1.192,1.192,0,0,0,1.192,1.192h9.538a1.192,1.192,0,0,0,1.192-1.192h0v-2.384h11.922v2.384h0a1.192,1.192,0,0,0,1.192,1.192h9.538a1.192,1.192,0,0,0,1.192-1.192h0v-2.384h3.577v33.381h-66.762Zm41.727,35.766v2.384h-16.691v-2.384Zm-14.307,4.769h11.922v2.385h-11.922v-2.385Zm7.153,22.652h-2.384v-17.883h2.384Z" transform="translate(-7110.489 2667.252)" fill="#182b37"/>
      </g>
    </g>
  </g>
</svg>
